# xmcd
#
# Track frame offsets: 
#        150
#        17117
#        34492
#        52492
#        69585
#        87642
#        104477
#        117517
#        141042
#        160422
#        176387
#
# Disc length: 2663 seconds
#
# Revision: 4
# Processed by: cddbd v1.5.2PL0 Copyright (c) Steve Scherf et al.
# Submitted via: ExactAudioCopy v1.1
#
DISCID=a60a650b
DTITLE=Andy Griggs - This I Gotta See
DYEAR=2004
DGENRE=Country
TTITLE0=This I Gotta See
TTITLE1=My Kind Of Beautiful
TTITLE2=She Thinks She Needs Me
TTITLE3=Careful Where You Kiss Me
TTITLE4=Be Still
TTITLE5=I Never Had A Chance
TTITLE6=Hillbilly Band
TTITLE7=Why Do I Still Want You
TTITLE8=Long Enough
TTITLE9=If Heaven
TTITLE10=No Mississippi (ft. Bekka Bramlett and Delbert McClinton)
EXTD=YEAR: 2004
EXTT0=
EXTT1=
EXTT2=
EXTT3=
EXTT4=
EXTT5=
EXTT6=
EXTT7=
EXTT8=
EXTT9=
EXTT10=
PLAYORDER=
